<svg width="20" height="10" viewBox="0 0 20 10" fill="none" xmlns="http://www.w3.org/2000/svg">
<path d="M0.109531 2.412C0.341531 2.316 0.581531 2.208 0.829531 2.088C1.08553 1.96 1.33353 1.824 1.57353 1.68C1.81353 1.528 2.04153 1.372 2.25753 1.212C2.48153 1.044 2.68153 0.868 2.85753 0.684H4.10553V9H2.31753V3.012C2.07753 3.172 1.80953 3.32 1.51353 3.456C1.21753 3.584 0.929531 3.696 0.649531 3.792L0.109531 2.412ZM12.4498 6.684C12.4498 7.044 12.3858 7.376 12.2578 7.68C12.1378 7.976 11.9538 8.236 11.7058 8.46C11.4578 8.684 11.1458 8.86 10.7698 8.988C10.4018 9.108 9.97384 9.168 9.48584 9.168C8.92584 9.168 8.45784 9.092 8.08184 8.94C7.71384 8.78 7.41384 8.584 7.18184 8.352C6.95784 8.12 6.79784 7.868 6.70184 7.596C6.60584 7.316 6.55784 7.06 6.55784 6.828C6.55784 6.588 6.58984 6.368 6.65384 6.168C6.71784 5.968 6.80584 5.788 6.91784 5.628C7.02984 5.46 7.15384 5.308 7.28984 5.172C7.43384 5.036 7.58584 4.908 7.74584 4.788C7.40184 4.508 7.14584 4.232 6.97784 3.96C6.81784 3.688 6.73784 3.34 6.73784 2.916C6.73784 2.596 6.80184 2.288 6.92984 1.992C7.06584 1.696 7.25384 1.44 7.49384 1.224C7.73384 1 8.02184 0.823999 8.35784 0.696C8.70184 0.559999 9.08184 0.491999 9.49784 0.491999C9.98584 0.491999 10.4018 0.563999 10.7458 0.707999C11.0978 0.844 11.3858 1.02 11.6098 1.236C11.8338 1.452 11.9938 1.696 12.0898 1.968C12.1938 2.232 12.2458 2.496 12.2458 2.76C12.2458 3.144 12.1418 3.504 11.9338 3.84C11.7338 4.168 11.4818 4.428 11.1778 4.62C11.6338 4.916 11.9578 5.228 12.1498 5.556C12.3498 5.876 12.4498 6.252 12.4498 6.684ZM8.29784 6.756C8.29784 6.852 8.31784 6.96 8.35784 7.08C8.40584 7.192 8.47784 7.296 8.57384 7.392C8.66984 7.488 8.79384 7.568 8.94584 7.632C9.09784 7.696 9.28184 7.728 9.49784 7.728C9.91384 7.728 10.2178 7.628 10.4098 7.428C10.6018 7.228 10.6978 7.004 10.6978 6.756C10.6978 6.572 10.6538 6.408 10.5658 6.264C10.4858 6.12 10.3738 5.996 10.2298 5.892C10.0858 5.78 9.91384 5.684 9.71384 5.604C9.52184 5.516 9.31384 5.436 9.08984 5.364C8.86584 5.532 8.67784 5.728 8.52584 5.952C8.37384 6.176 8.29784 6.444 8.29784 6.756ZM10.5178 2.808C10.5178 2.72 10.4978 2.628 10.4578 2.532C10.4258 2.428 10.3658 2.332 10.2778 2.244C10.1978 2.156 10.0938 2.084 9.96584 2.028C9.83784 1.964 9.68184 1.932 9.49784 1.932C9.32184 1.932 9.16984 1.96 9.04184 2.016C8.91384 2.072 8.80584 2.148 8.71784 2.244C8.63784 2.332 8.57784 2.428 8.53784 2.532C8.49784 2.636 8.47784 2.736 8.47784 2.832C8.47784 3.088 8.56984 3.328 8.75384 3.552C8.94584 3.776 9.26984 3.968 9.72584 4.128C9.98184 3.968 10.1778 3.784 10.3138 3.576C10.4498 3.368 10.5178 3.112 10.5178 2.808ZM13.4982 4.668H15.5022V2.448H17.1342V4.668H19.1382V6.168H17.1342V8.388H15.5022V6.168H13.4982V4.668Z" fill="white"/>
</svg>
