<svg width="207" height="24" viewBox="0 0 207 24" fill="none" xmlns="http://www.w3.org/2000/svg">
<path d="M9.8135 0H16.4805C17.2179 0 17.6788 0.320778 17.8631 0.962333L24.7145 19.5674C24.735 19.6258 24.7452 19.723 24.7452 19.8591C24.7452 19.9757 24.6735 20.1021 24.5301 20.2382C24.4073 20.3548 24.2536 20.4131 24.0693 20.4131H18.3854C17.7709 20.4131 17.3715 20.1701 17.1872 19.6841L16.4498 17.7594H9.84423L7.90863 20.4131C8.52311 20.4131 7.72429 20.8992 7.90863 20.4131H2.22475C2.04041 20.4131 1.87655 20.3548 1.73317 20.2382C1.61028 20.1021 1.54883 19.9757 1.54883 19.8591C1.54883 19.723 1.55907 19.6258 1.57955 19.5674L8.43094 0.962333C8.61528 0.320778 9.07613 0 9.8135 0Z" fill="#54585F"/>
<path d="M28.4061 14.1725H31.4785C32.5026 14.1725 33.0659 14.0365 33.1683 13.7643L26.0097 0.90401C25.9892 0.845687 25.979 0.777643 25.979 0.699878C26.0609 0.233293 26.3169 0 26.7471 0H33.1683C33.5984 0 33.9262 0.233293 34.1515 0.699878L37.0088 6.44472L39.2823 0.699878C39.4871 0.233293 39.8353 0 40.3269 0H46.6867C46.8711 0 47.0349 0.068044 47.1783 0.204132C47.3217 0.320778 47.3934 0.456866 47.3934 0.612394C47.3934 0.767923 47.3831 0.865129 47.3627 0.90401L41.2486 14.4642C40.1836 16.836 39.057 18.4204 37.869 19.2175C36.7015 20.0146 34.8274 20.4131 32.2466 20.4131H28.4061C28.1808 20.4131 27.9862 20.3354 27.8224 20.1798C27.6585 20.0243 27.5766 19.8396 27.5766 19.6258V14.9599C27.5766 14.7461 27.6585 14.5614 27.8224 14.4058C27.9862 14.2503 28.1808 14.1725 28.4061 14.1725Z" fill="#54585F"/>
<path d="M53.0017 0H69.8382C70.0635 0 70.2581 0.0777644 70.422 0.233293C70.5858 0.388822 70.6678 0.573512 70.6678 0.787364V13.9976H71.9889C72.2142 13.9976 72.4088 14.0753 72.5726 14.2309C72.7365 14.3864 72.8184 14.5711 72.8184 14.7849V23.2126C72.8184 23.4265 72.7365 23.6112 72.5726 23.7667C72.4088 23.9222 72.2142 24 71.9889 24H65.967C65.7417 24 65.5472 23.9222 65.3833 23.7667C65.2194 23.6112 65.1375 23.4265 65.1375 23.2126V20.4131H56.7807V23.2126C56.7807 23.4265 56.6987 23.6112 56.5349 23.7667C56.371 23.9222 56.1764 24 55.9511 24H49.9293C49.704 24 49.5094 23.9222 49.3455 23.7667C49.1817 23.6306 49.0997 23.4459 49.0997 23.2126V14.7849C49.0997 14.5711 49.1817 14.3864 49.3455 14.2309C49.5094 14.0753 49.704 13.9976 49.9293 13.9976H50.0522C50.6667 13.9976 51.1685 13.8032 51.5576 13.4143C51.9673 13.0255 52.1721 12.4714 52.1721 11.7521V0.787364C52.1721 0.573512 52.254 0.388822 52.4179 0.233293C52.5818 0.0777644 52.7763 0 53.0017 0ZM62.9869 6.41555H59.853V11.7813C59.853 12.87 59.7609 13.6087 59.5765 13.9976H62.9869V6.41555Z" fill="#54585F"/>
<path d="M77.1834 0H82.7443C82.9697 0 83.1642 0.0777644 83.3281 0.233293C83.492 0.388822 83.5739 0.573512 83.5739 0.787364V8.74848L88.7662 0.670717C89.0325 0.223572 89.4524 0 90.0259 0H94.8802C95.1055 0 95.3001 0.0777644 95.464 0.233293C95.6278 0.388822 95.7097 0.573512 95.7097 0.787364V19.6258C95.7097 19.8396 95.6278 20.0243 95.464 20.1798C95.3001 20.3354 95.1055 20.4131 94.8802 20.4131H89.3192C89.0939 20.4131 88.8993 20.3354 88.7355 20.1798C88.5716 20.0243 88.4897 19.8396 88.4897 19.6258V12.3062L83.2974 19.7424C82.9901 20.1896 82.5702 20.4131 82.0377 20.4131H77.1834C76.9581 20.4131 76.7635 20.3354 76.5996 20.1798C76.4357 20.0243 76.3538 19.8396 76.3538 19.6258V0.787364C76.3538 0.573512 76.4357 0.388822 76.5996 0.233293C76.7635 0.0777644 76.9581 0 77.1834 0Z" fill="#54585F"/>
<path d="M99.4508 0H117.455C117.68 0 117.875 0.0777644 118.039 0.233293C118.203 0.388822 118.284 0.573512 118.284 0.787364V5.48238C118.284 5.69623 118.203 5.88092 118.039 6.03645C117.875 6.19198 117.68 6.26975 117.455 6.26975H112.355V19.6258C112.355 19.8396 112.273 20.0243 112.109 20.1798C111.945 20.3354 111.751 20.4131 111.525 20.4131H105.381C105.155 20.4131 104.961 20.3354 104.797 20.1798C104.633 20.0243 104.551 19.8396 104.551 19.6258V6.26975H99.4508C99.2255 6.26975 99.0309 6.19198 98.8671 6.03645C98.7032 5.88092 98.6213 5.69623 98.6213 5.48238V0.787364C98.6213 0.573512 98.7032 0.388822 98.8671 0.233293C99.0309 0.0777644 99.2255 0 99.4508 0Z" fill="#54585F"/>
<path d="M128.583 14.7266H138.046C138.271 14.7266 138.466 14.8044 138.63 14.9599C138.793 15.1154 138.875 15.3001 138.875 15.514V19.6258C138.875 19.8396 138.793 20.0243 138.63 20.1798C138.466 20.3354 138.271 20.4131 138.046 20.4131H122.039C121.813 20.4131 121.619 20.3354 121.455 20.1798C121.291 20.0243 121.209 19.8396 121.209 19.6258V0.787364C121.209 0.573512 121.291 0.388822 121.455 0.233293C121.619 0.0777644 121.813 0 122.039 0H137.8C138.025 0 138.22 0.0777644 138.384 0.233293C138.548 0.388822 138.63 0.573512 138.63 0.787364V4.89915C138.63 5.113 138.548 5.29769 138.384 5.45322C138.22 5.60875 138.025 5.68651 137.8 5.68651H128.583V7.52369H137.124C137.349 7.52369 137.544 7.60146 137.708 7.75699C137.872 7.91252 137.954 8.09721 137.954 8.31106V12.1021C137.954 12.3159 137.872 12.5006 137.708 12.6561C137.544 12.8117 137.349 12.8894 137.124 12.8894H128.583V14.7266Z" fill="#54585F"/>
<path d="M143.401 0H152.557C155.506 0 157.811 0.602674 159.47 1.80802C161.129 3.01337 161.958 4.79222 161.958 7.14459C161.958 9.49696 161.129 11.2369 159.47 12.3645C157.831 13.4921 155.527 14.0559 152.557 14.0559H150.56V19.6258C150.56 19.8396 150.478 20.0243 150.314 20.1798C150.15 20.3354 149.956 20.4131 149.73 20.4131H143.401C143.176 20.4131 142.981 20.3354 142.818 20.1798C142.654 20.0243 142.572 19.8396 142.572 19.6258V0.787364C142.572 0.573512 142.654 0.388822 142.818 0.233293C142.981 0.0777644 143.176 0 143.401 0ZM150.406 5.42406V8.661H152.557C152.926 8.661 153.253 8.53463 153.54 8.2819C153.827 8.00972 153.97 7.63062 153.97 7.14459C153.97 6.65857 153.858 6.2503 153.632 5.91981C153.407 5.58931 153.049 5.42406 152.557 5.42406H150.406Z" fill="#54585F"/>
<path d="M165.394 0H170.955C171.18 0 171.375 0.0777644 171.539 0.233293C171.703 0.388822 171.784 0.573512 171.784 0.787364V8.74848L176.977 0.670717C177.243 0.223572 177.663 0 178.236 0H183.091C183.316 0 183.511 0.0777644 183.675 0.233293C183.838 0.388822 183.92 0.573512 183.92 0.787364V19.6258C183.92 19.8396 183.838 20.0243 183.675 20.1798C183.511 20.3354 183.316 20.4131 183.091 20.4131H177.53C177.305 20.4131 177.11 20.3354 176.946 20.1798C176.782 20.0243 176.7 19.8396 176.7 19.6258V12.3062L171.508 19.7424C171.201 20.1896 170.781 20.4131 170.248 20.4131H165.394C165.169 20.4131 164.974 20.3354 164.81 20.1798C164.646 20.0243 164.564 19.8396 164.564 19.6258V0.787364C164.564 0.573512 164.646 0.388822 164.81 0.233293C164.974 0.0777644 165.169 0 165.394 0Z" fill="#54585F"/>
<path d="M190.703 12.8019C188.491 11.4605 187.385 9.62333 187.385 7.2904C187.385 4.93803 188.214 3.13973 189.874 1.8955C191.533 0.631835 193.837 0 196.786 0H205.881C206.106 0 206.3 0.0777644 206.464 0.233293C206.628 0.388822 206.71 0.573512 206.71 0.787364V19.6258C206.71 19.8396 206.628 20.0243 206.464 20.1798C206.3 20.3354 206.106 20.4131 205.881 20.4131H199.859C199.633 20.4131 199.439 20.3354 199.275 20.1798C199.111 20.0243 199.029 19.8396 199.029 19.6258V14.0559H197.77L195.127 19.6258C194.882 20.1507 194.441 20.4131 193.806 20.4131H187.508C187.323 20.4131 187.16 20.3548 187.016 20.2382C186.893 20.1021 186.832 19.966 186.832 19.8299C186.832 19.6938 186.863 19.5674 186.924 19.4508L190.703 12.8019ZM199.029 8.51519V5.42406H196.786C196.315 5.42406 195.957 5.58931 195.711 5.91981C195.486 6.23086 195.373 6.60024 195.373 7.02795C195.373 7.45565 195.496 7.81531 195.742 8.10693C195.988 8.3791 196.336 8.51519 196.786 8.51519H199.029Z" fill="#54585F"/>
<path d="M16.2581 9.49825L4.11385 0.774414L0 17.0325L16.2581 9.49825Z" fill="#827D7B"/>
<path d="M16.2581 9.67762L6.34839 9.29053L0 17.0325L16.2581 9.67762Z" fill="#424242"/>
<path d="M16.2578 9.67725L5.93523 9.66042L4.25781 0.774029L16.2578 9.67725Z" fill="#646464"/>
</svg>
