<svg width="33" height="28" viewBox="0 0 33 28" fill="none" xmlns="http://www.w3.org/2000/svg">
<rect opacity="0.8" width="33" height="28" rx="8" fill="black" fill-opacity="0.7"/>
<path d="M7.10953 11.412C7.34153 11.316 7.58153 11.208 7.82953 11.088C8.08553 10.96 8.33353 10.824 8.57353 10.68C8.81353 10.528 9.04153 10.372 9.25753 10.212C9.48153 10.044 9.68153 9.868 9.85753 9.684H11.1055V18H9.31753V12.012C9.07753 12.172 8.80953 12.32 8.51353 12.456C8.21753 12.584 7.92953 12.696 7.64953 12.792L7.10953 11.412ZM19.4498 15.684C19.4498 16.044 19.3858 16.376 19.2578 16.68C19.1378 16.976 18.9538 17.236 18.7058 17.46C18.4578 17.684 18.1458 17.86 17.7698 17.988C17.4018 18.108 16.9738 18.168 16.4858 18.168C15.9258 18.168 15.4578 18.092 15.0818 17.94C14.7138 17.78 14.4138 17.584 14.1818 17.352C13.9578 17.12 13.7978 16.868 13.7018 16.596C13.6058 16.316 13.5578 16.06 13.5578 15.828C13.5578 15.588 13.5898 15.368 13.6538 15.168C13.7178 14.968 13.8058 14.788 13.9178 14.628C14.0298 14.46 14.1538 14.308 14.2898 14.172C14.4338 14.036 14.5858 13.908 14.7458 13.788C14.4018 13.508 14.1458 13.232 13.9778 12.96C13.8178 12.688 13.7378 12.34 13.7378 11.916C13.7378 11.596 13.8018 11.288 13.9298 10.992C14.0658 10.696 14.2538 10.44 14.4938 10.224C14.7338 10 15.0218 9.824 15.3578 9.696C15.7018 9.56 16.0818 9.492 16.4978 9.492C16.9858 9.492 17.4018 9.564 17.7458 9.708C18.0978 9.844 18.3858 10.02 18.6098 10.236C18.8338 10.452 18.9938 10.696 19.0898 10.968C19.1938 11.232 19.2458 11.496 19.2458 11.76C19.2458 12.144 19.1418 12.504 18.9338 12.84C18.7338 13.168 18.4818 13.428 18.1778 13.62C18.6338 13.916 18.9578 14.228 19.1498 14.556C19.3498 14.876 19.4498 15.252 19.4498 15.684ZM15.2978 15.756C15.2978 15.852 15.3178 15.96 15.3578 16.08C15.4058 16.192 15.4778 16.296 15.5738 16.392C15.6698 16.488 15.7938 16.568 15.9458 16.632C16.0978 16.696 16.2818 16.728 16.4978 16.728C16.9138 16.728 17.2178 16.628 17.4098 16.428C17.6018 16.228 17.6978 16.004 17.6978 15.756C17.6978 15.572 17.6538 15.408 17.5658 15.264C17.4858 15.12 17.3738 14.996 17.2298 14.892C17.0858 14.78 16.9138 14.684 16.7138 14.604C16.5218 14.516 16.3138 14.436 16.0898 14.364C15.8658 14.532 15.6778 14.728 15.5258 14.952C15.3738 15.176 15.2978 15.444 15.2978 15.756ZM17.5178 11.808C17.5178 11.72 17.4978 11.628 17.4578 11.532C17.4258 11.428 17.3658 11.332 17.2778 11.244C17.1978 11.156 17.0938 11.084 16.9658 11.028C16.8378 10.964 16.6818 10.932 16.4978 10.932C16.3218 10.932 16.1698 10.96 16.0418 11.016C15.9138 11.072 15.8058 11.148 15.7178 11.244C15.6378 11.332 15.5778 11.428 15.5378 11.532C15.4978 11.636 15.4778 11.736 15.4778 11.832C15.4778 12.088 15.5698 12.328 15.7538 12.552C15.9458 12.776 16.2698 12.968 16.7258 13.128C16.9818 12.968 17.1778 12.784 17.3138 12.576C17.4498 12.368 17.5178 12.112 17.5178 11.808ZM20.4982 13.668H22.5022V11.448H24.1342V13.668H26.1382V15.168H24.1342V17.388H22.5022V15.168H20.4982V13.668Z" fill="white"/>
</svg>
